# xmcd CD database file
#
# Track frame offsets:
#	150
#	7537
#	16627
#	25615
#	30540
#	38142
#	45767
#	54627
#	57442
#	64700
#	70832
#	77180
#	82060
#	90504
#	93722
#	105307
#	111262
#	120022
#	124995
#	130197
#	137807
#	143382
#	149385
#	152675
#	158584
#	169915
#	176712
#	182800
#	189305
#	199285
#	205135
#	211927
#	215392
#	223927
#	236030
#	242525
#	246090
#	250882
#	256459
#	260255
#	272640
#	279755
#
# Disc length: 3798 seconds
#
# Revision: 0
# Processed by: cddbd v1.5.1PL0 Copyright (c) Steve Scherf et al.
# Submitted via: CDex 1.51
#
DISCID=400ed42a
DTITLE=Liturgia II - Liturgia II - 5 Missas
DYEAR=1999
DGENRE=Liturgico
TTITLE0=Cantemos todos com alegria-Entrada
TTITLE1=Perdao Jesus-Ato penitencial
TTITLE2=Gloria gloria
TTITLE3=Batam palmas-Aclamacao
TTITLE4=Eis Jesus o pao e o vinho-Oferendas
TTITLE5=Santo eh o Senhor
TTITLE6=Nos queremos te adorar-Comunhao
TTITLE7=A missa terminou-Final
TTITLE8=A biblia eh a historia sagrada
TTITLE9=Quando tua palavra-Aclamacao
TTITLE10=Gloria a Deus
TTITLE11=A mensagem de Deus-Aclamacao
TTITLE12=Vai o pao vai o vinho-Oferendas
TTITLE13=Estah na hora-Abraco da paz
TTITLE14=A palavra de Deus-Comunhao
TTITLE15=Papai do ceu-Final
TTITLE16=Eu sou feliz-Entrada
TTITLE17=Quantas vezes-Ato penitencial
TTITLE18=Gloria a Deus no ceu-Gloria
TTITLE19=Fala Senhor-Aclamacao
TTITLE20=Creio que Deus-Credo
TTITLE21=Com alegria ofertamos-Oferendas
TTITLE22=Deus eh santo-Santo
TTITLE23=Papai do ceu-Pai nosso
TTITLE24=Convidados nos somos-Comunhao
TTITLE25=O meu coracao-Final
TTITLE26=Nata natal nasceu Jesus-Entrada
TTITLE27=Jesus eu nao soube perdoar-Ato penitencial
TTITLE28=Maria com muito amor
TTITLE29=Aleluia gloria a Deus-Aclamacao
TTITLE30=Hoje eh natal-Oferendas
TTITLE31=Santo Santo Santo
TTITLE32=Nos somos bem felizes agora-Comunhao
TTITLE33=Dorme dorme tranquilo meu Jesus-Final
TTITLE34=Bom dia irmao-Entrada
TTITLE35=Eu te peco perdao-Ato penitencial
TTITLE36=Aleluia-Aclamacao
TTITLE37=A gente nao sabe te agradecer-Oferendas
TTITLE38=Com alegria-abraco da paz
TTITLE39=Oh meu Deus-Comunhao
TTITLE40=Que bom a gente ver o sol
TTITLE41=A missa terminou-Final
EXTD=YEAR: 1999
EXTT0=
EXTT1=
EXTT2=
EXTT3=
EXTT4=
EXTT5=
EXTT6=
EXTT7=
EXTT8=
EXTT9=
EXTT10=
EXTT11=
EXTT12=
EXTT13=
EXTT14=
EXTT15=
EXTT16=
EXTT17=
EXTT18=
EXTT19=
EXTT20=
EXTT21=
EXTT22=
EXTT23=
EXTT24=
EXTT25=
EXTT26=
EXTT27=
EXTT28=
EXTT29=
EXTT30=
EXTT31=
EXTT32=
EXTT33=
EXTT34=
EXTT35=
EXTT36=
EXTT37=
EXTT38=
EXTT39=
EXTT40=
EXTT41=
PLAYORDER=
